# xmcd CD database file
#
# Track frame offsets:
#	150
#	20327
#	40197
#	60375
#
# Disc length: 1067 seconds
#
# Revision: 0
# Processed by: cddbd v1.5PL3 Copyright (c) Steve Scherf et al.
# Submitted via: CDex 1.50beta8
#
DISCID=26042904
DTITLE=菊池志穂 - スカートのポケット
DYEAR=1900
DGENRE=Vocal
TTITLE0=スカートのポケット
TTITLE1=今日も明日もいつもの道で
TTITLE2=スカートのポケット (オリジナル・カラオケ)
TTITLE3=今日も明日もいつもの道で (オリジナル・カラオケ)
EXTD=
EXTT0=
EXTT1=
EXTT2=
EXTT3=
PLAYORDER=
